<?xml version="1.0" encoding="UTF-8" standalone="no"?>
<!-- Created with Inkscape (http://www.inkscape.org/) -->

<svg
   xmlns:dc="http://purl.org/dc/elements/1.1/"
   xmlns:cc="http://creativecommons.org/ns#"
   xmlns:rdf="http://www.w3.org/1999/02/22-rdf-syntax-ns#"
   xmlns:svg="http://www.w3.org/2000/svg"
   xmlns="http://www.w3.org/2000/svg"
   xmlns:sodipodi="http://sodipodi.sourceforge.net/DTD/sodipodi-0.dtd"
   xmlns:inkscape="http://www.inkscape.org/namespaces/inkscape"
   width="320.65625"
   height="320.65625"
   id="svg6128"
   version="1.1"
   inkscape:version="0.48.0 r9654"
   sodipodi:docname="Новый документ 23">
  <defs
     id="defs6130" />
  <sodipodi:namedview
     id="base"
     pagecolor="#ffffff"
     bordercolor="#666666"
     borderopacity="1.0"
     inkscape:pageopacity="0.0"
     inkscape:pageshadow="2"
     inkscape:zoom="0.49497475"
     inkscape:cx="310.22428"
     inkscape:cy="289.26716"
     inkscape:document-units="px"
     inkscape:current-layer="layer1"
     showgrid="false"
     fit-margin-top="0"
     fit-margin-left="0"
     fit-margin-right="0"
     fit-margin-bottom="0"
     inkscape:window-width="1280"
     inkscape:window-height="904"
     inkscape:window-x="-4"
     inkscape:window-y="-4"
     inkscape:window-maximized="1" />
  <metadata
     id="metadata6133">
    <rdf:RDF>
      <cc:Work
         rdf:about="">
        <dc:format>image/svg+xml</dc:format>
        <dc:type
           rdf:resource="http://purl.org/dc/dcmitype/StillImage" />
        <dc:title></dc:title>
      </cc:Work>
    </rdf:RDF>
  </metadata>
  <g
     inkscape:label="Layer 1"
     inkscape:groupmode="layer"
     id="layer1"
     transform="translate(274.625,-583.46875)">
    <g
       id="g7869">
      <text
         style="font-size:14.99282646px;font-style:normal;font-weight:normal;text-align:start;text-anchor:start;fill:#000000;font-family:Times New Roman"
         y="596.89856"
         x="-274.61523"
         xml:space="preserve"
         id="2"> </text>
      <path
         d="m -219.92891,585.33533 c -29.16104,0 -52.81223,23.65118 -52.81223,52.81222 l 0,211.2864 c 0,29.16104 23.65119,52.81223 52.81223,52.81223 l 211.26765,0 c 29.17979,0 52.83097,-23.65119 52.83097,-52.81223 l 0,-211.2864 c 0,-29.16104 -23.65118,-52.81222 -52.83097,-52.81222 z"
         style="fill:#ffffff;stroke:#000000;stroke-width:3.74820638px;stroke-linecap:round;stroke-linejoin:round;stroke-opacity:1;stroke-dasharray:none"
         id="3"
         inkscape:connector-curvature="0" />
      <path
         id="4"
         d="m -231.5,611.0625 c -3.9731,0 -7.93739,1.53114 -10.96875,4.5625 -6.06272,6.06273 -6.06272,15.87478 0,21.9375 3.25234,3.25235 7.58639,4.76834 11.84375,4.53125 l 39.375,39.40625 -39.1875,39.1875 34.75,-11.78125 9.65625,-9.65625 44.53125,44.5 -95.375,95.375 -5.5,32.625 32.65625,-5.46875 95.34375,-95.34375 95.4375,95.40625 32.65625,5.46875 L 8.25,839.125 l -95.40625,-95.40625 44.5,-44.5 9.6875,9.6875 34.75,11.78125 -39.25,-39.25 39.375,-39.34375 c 4.2573625,0.23709 8.591403,-1.2789 11.84375,-4.53125 6.06272,-6.06272 6.06272,-15.87477 0,-21.9375 -3.031365,-3.03136 -6.9956512,-4.5625 -10.96875,-4.5625 -3.9730988,0 -7.93739,1.53114 -10.96875,4.5625 -3.252342,3.25235 -4.768341,7.58639 -4.53125,11.84375 l -39.375,39.34375 -39.1875,-39.21875 11.78125,34.78125 9.6875,9.6875 -44.5,44.5 -44.5,-44.5 9.625,-9.65625 11.78125,-34.75 L -176.5625,666.8125 -216,627.375 c 0.21019,-4.2275 -1.2713,-8.52129 -4.5,-11.75 -3.03136,-3.03136 -7.0269,-4.5625 -11,-4.5625 z"
         style="fill:#000000;fill-opacity:1;fill-rule:evenodd;stroke:none"
         inkscape:connector-curvature="0" />
    </g>
  </g>
</svg>
